<?xml version="1.0" encoding="UTF-8"?>
<!DOCTYPE svg PUBLIC "-//W3C//DTD SVG 1.1//EN" "http://www.w3.org/Graphics/SVG/1.1/DTD/svg11.dtd">
<!-- Creator: CorelDRAW -->
<svg xmlns="http://www.w3.org/2000/svg" xml:space="preserve" width="210mm" height="297mm" version="1.1" style="shape-rendering:geometricPrecision; text-rendering:geometricPrecision; image-rendering:optimizeQuality; fill-rule:evenodd; clip-rule:evenodd"
viewBox="0 0 21000 29700"
 xmlns:xlink="http://www.w3.org/1999/xlink"
 xmlns:xodm="http://www.corel.com/coreldraw/odm/2003">
 <defs>
  <style type="text/css">
   <![CDATA[
    .str0 {stroke:#373435;stroke-width:20;stroke-miterlimit:22.9256}
    .fil0 {fill:none}
   ]]>
  </style>
 </defs>
 <g id="Camada_x0020_1">
  <metadata id="CorelCorpID_0Corel-Layer"/>
  <path class="fil0 str0" d="M29265.18 19335.07c17.45,503.67 34.91,1007.35 52.36,1511.02m-1122.05 -2079.53c356.56,182.02 713.13,364.05 895.15,463.78 182.02,99.74 189.5,117.2 264.31,107.22 74.8,-9.97 216.92,-47.38 428.87,-103.48 211.94,-56.1 493.7,-130.91 775.46,-205.71m-4208.88 140.26c42.14,-256.07 84.28,-512.14 126.42,-768.21m1011.31 593.17c-366.28,61.59 -732.55,123.17 -922.17,152.34 -189.63,29.18 -202.59,25.94 -209.07,24.32 -6.49,-1.62 -6.49,-1.62 -6.49,-1.62m262.55 -875.18c291.73,233.38 583.45,466.76 875.18,700.14m252.82 -1021.04c-45.38,298.21 -90.76,596.42 -113.45,745.52 -22.69,149.11 -22.69,149.11 -22.69,149.11m-1089.1 -632.07c379.24,-139.38 758.49,-278.76 948.11,-348.45 189.62,-69.69 189.62,-69.69 189.62,-69.69m-1740.62 388.96c194.48,9.73 388.96,19.45 583.44,29.18m165.31 -923.8c-38.9,298.21 -77.79,596.41 -116.69,894.62m56.53 -2021.43c-84.25,82.72 -168.5,165.43 -224.41,216.74 -55.91,51.32 -83.48,71.24 -111.05,91.15m-367.63 -1056.94c10.72,318.61 21.44,637.23 32.16,955.84m9028.99 -2095.63c-8.75,87.41 -17.51,174.81 -40.03,250.84 -22.51,76.03 -58.8,140.67 -90.56,201.3 -31.75,60.62 -58.97,117.22 -86.2,173.82m-982.12 3125.12c-44.02,62.15 -88.04,124.3 -126.88,182.56 -38.84,58.27 -72.51,112.64 -106.17,167.02m-7026.77 -2828.66c78.76,266.16 157.53,532.33 211.85,712.94 54.31,180.61 84.19,275.67 118.14,382.95 33.94,107.28 71.97,226.78 101.85,334.06 29.87,107.28 51.6,202.34 67.9,253.94 16.29,51.61 27.16,59.75 67.9,66.54 40.73,6.79 111.35,12.23 181.97,23.09 70.61,10.87 141.22,27.16 202.33,46.17 61.11,19.02 112.72,40.74 148.03,74.69 35.3,33.95 54.31,80.12 112.71,199.62 58.39,119.5 156.16,312.34 210.48,448.13 54.32,135.8 65.19,214.57 74.7,278.39 9.5,63.83 17.64,112.71 6.78,156.16 -10.86,43.46 -40.74,81.49 -69.25,107.29 -28.52,25.8 -55.68,39.38 -70.62,52.96 -14.94,13.58 -17.65,27.16 -10.86,47.53 6.79,20.37 23.08,47.53 58.39,71.97 35.31,24.45 89.63,46.17 130.37,65.18 40.74,19.02 67.89,35.31 86.91,16.3 19.01,-19.01 29.87,-73.33 39.38,-112.71 9.51,-39.38 17.65,-63.83 51.6,-77.41 33.95,-13.57 93.7,-16.29 187.4,-27.15 93.7,-10.86 221.36,-29.88 419.63,-59.76 198.26,-29.87 467.14,-70.61 611.09,-85.55 143.94,-14.94 162.95,-4.07 311.9,64.21 148.95,68.29 427.83,193.99 603.84,272.96 176.01,78.98 249.15,111.22 283.83,166.15 34.68,54.94 30.9,132.58 33.2,287.65 2.3,155.08 10.67,387.6 15.03,504.91 4.37,117.31 4.74,119.42 5.1,121.52m3941.51 -4119.05c28.12,27.24 77.34,97.55 109.85,170.49 32.52,72.94 48.34,148.51 65.91,224.96 17.58,76.46 36.92,153.8 51.86,227.61 14.94,73.82 25.48,144.13 30.75,210.91 5.28,66.79 5.28,130.07 -2.63,192.46 -7.91,62.4 -23.73,123.91 -45.7,197.73 -21.97,73.82 -50.09,159.94 -79.97,225.85 -29.88,65.91 -61.52,111.61 -94.92,166.09 -33.39,54.49 -68.54,117.77 -102.81,170.49 -34.27,52.73 -67.67,94.91 -101.07,132.69 -33.39,37.79 -66.78,71.19 -124.79,107.22 -58,36.03 -140.6,74.7 -190.7,101.94 -50.09,27.25 -67.66,43.06 -103.69,52.73 -36.03,9.67 -90.52,13.18 -136.22,14.94 -45.69,1.76 -82.6,1.76 -107.21,0 -24.6,-1.76 -36.91,-5.27 -32.52,-28.12 4.4,-22.85 25.49,-65.04 47.46,-103.71 21.97,-38.66 44.82,-73.81 65.91,-115.99 21.09,-42.18 40.43,-91.4 62.4,-141.49 21.97,-50.09 46.57,-101.06 72.05,-153.79 25.49,-52.73 51.86,-107.21 78.22,-163.46 26.36,-56.24 52.73,-114.24 75.57,-174 22.85,-59.75 42.19,-121.27 67.67,-186.3 25.49,-65.03 57.12,-133.57 81.73,-192.45 24.61,-58.88 42.18,-108.1 58.88,-160.83 16.7,-52.72 32.52,-108.97 43.06,-152.03 10.55,-43.06 15.82,-72.94 31.64,-133.58 15.82,-60.63 42.18,-152.03 60.63,-213.55 18.46,-61.51 29.01,-93.14 40.43,-133.57 11.42,-40.42 23.73,-89.64 33.39,-122.16 9.67,-32.51 16.7,-48.32 44.82,-21.08zm-2595.54 -5410.1c62.74,21.38 102.66,61.31 126.9,111.21 24.24,49.9 32.79,109.78 39.92,191.05 7.13,81.27 12.83,183.92 8.55,238.1 -4.28,54.18 -18.53,59.89 -122.61,49.91 -104.08,-9.99 -297.99,-35.65 -601.68,-51.33 -303.68,-15.69 -717.15,-21.39 -1053.63,-25.66 -336.48,-4.28 -595.97,-7.14 -804.13,8.55 -208.16,15.68 -365,49.9 -551.77,81.27 -186.78,31.36 -403.49,59.88 -611.65,98.38 -208.17,38.49 -407.77,86.96 -605.95,156.83 -198.18,69.86 -394.94,161.11 -548.92,243.81 -153.98,82.69 -265.19,156.82 -339.33,225.26 -74.14,68.44 -111.21,131.17 -144,196.76 -32.79,65.58 -61.31,134.02 -72.71,191.05 -11.41,57.03 -5.71,102.65 35.64,163.96 41.34,61.31 118.34,138.3 179.65,198.18 61.3,59.88 106.93,102.66 196.75,162.54 89.82,59.88 223.85,136.87 360.72,202.46 136.87,65.58 276.6,119.76 416.32,161.11 139.72,41.35 279.45,69.86 414.9,95.53 135.44,25.66 266.61,48.47 413.47,76.99 146.85,28.51 309.38,62.73 461.94,86.97 152.56,24.24 295.13,38.49 436.29,51.33 141.15,12.83 280.87,24.23 580.28,28.51 299.41,4.28 758.51,1.42 1042.23,-8.56 283.73,-9.98 392.09,-27.08 496.17,-44.19 104.08,-17.11 203.89,-34.22 325.07,-57.03 121.19,-22.82 263.77,-51.33 423.45,-81.27 159.69,-29.95 336.48,-61.31 527.53,-108.36 191.06,-47.05 396.37,-109.79 564.61,-173.94 168.24,-64.16 299.41,-129.75 392.08,-191.05 92.68,-61.31 146.85,-118.34 201.03,-175.37 54.18,-57.03 108.36,-114.07 142.58,-161.12 34.22,-47.05 48.47,-84.11 55.6,-122.6 7.13,-38.5 7.13,-78.43 7.13,-118.35 0,-39.92 0,-79.84 -5.7,-115.48 -5.7,-35.65 -17.11,-67.01 -47.05,-104.08 -29.94,-37.07 -78.41,-79.85 -121.19,-118.34 -42.77,-38.5 -79.84,-72.72 -136.87,-114.06 -57.03,-41.35 -134.02,-89.83 -199.61,-125.47 -65.58,-35.64 -119.76,-58.46 -176.79,-82.69 -57.03,-24.24 -116.92,-49.91 -205.32,-84.12 -88.39,-34.22 -205.3,-77 -279.44,-99.81 -74.14,-22.81 -105.51,-25.67 -134.03,-34.22 -28.51,-8.56 -54.18,-22.81 -54.18,-42.77 0,-19.96 25.67,-45.63 62.74,-71.29 37.07,-25.66 85.54,-51.33 121.18,-71.29 35.65,-19.96 58.47,-34.21 82.7,-51.32 24.24,-17.11 49.91,-37.08 68.44,-57.04 18.54,-19.96 29.94,-39.92 44.2,-57.03 14.26,-17.11 31.37,-31.36 41.35,-44.19 9.98,-12.84 12.83,-24.24 19.96,-34.22 7.13,-9.98 18.53,-18.54 44.19,-18.54 25.67,0 65.59,8.56 104.08,21.39 38.5,12.83 75.57,29.94 115.49,45.63 39.92,15.68 82.7,29.93 126.89,51.32 44.2,21.39 89.83,49.9 128.32,74.14 38.5,24.24 69.86,44.2 102.65,61.31 32.8,17.11 67.02,31.36 108.37,54.18 41.35,22.81 89.82,54.17 141.15,89.82 51.33,35.64 105.5,75.57 152.55,114.07 47.05,38.49 86.98,75.56 114.07,104.08 27.09,28.51 41.34,48.47 59.87,85.54 18.54,37.07 41.36,91.25 65.59,141.15 24.24,49.9 49.91,95.53 68.44,135.45 18.54,39.92 29.94,74.13 32.79,114.06 2.86,39.92 -2.85,85.54 -12.83,126.89 -9.98,41.35 -24.24,78.42 -41.35,128.32 -17.11,49.9 -37.07,112.64 -62.74,163.97 -25.66,51.32 -57.02,91.24 -88.39,128.31 -31.37,37.07 -62.73,71.29 -114.06,112.64 -51.33,41.34 -122.61,89.82 -223.84,148.28 -101.23,58.45 -232.4,126.88 -387.81,206.73 -155.41,79.84 -335.05,171.09 -538.94,230.97 -203.88,59.88 -432.01,88.4 -691.5,131.17 -259.48,42.77 -550.34,99.81 -872.56,134.03 -322.22,34.21 -675.81,45.62 -976.65,52.75 -300.83,7.12 -548.92,9.98 -748.52,7.13 -199.61,-2.85 -350.74,-11.41 -501.87,-24.24 -151.13,-12.83 -302.26,-29.94 -464.79,-51.32 -162.54,-21.39 -336.49,-47.06 -484.77,-72.72 -148.28,-25.66 -270.89,-51.33 -397.78,-82.69 -126.9,-31.37 -258.07,-68.44 -394.94,-111.21 -136.87,-42.78 -279.45,-91.25 -429.15,-156.83 -149.71,-65.59 -306.54,-148.29 -424.88,-211.02 -118.34,-62.73 -198.18,-105.51 -262.34,-153.98 -64.16,-48.48 -112.63,-102.66 -163.96,-161.11 -51.33,-58.46 -105.51,-121.2 -149.71,-178.23 -44.2,-57.03 -78.41,-108.35 -96.94,-185.34 -18.54,-77 -21.4,-179.65 -4.29,-262.34 17.11,-82.7 54.18,-145.44 92.68,-213.87 38.49,-68.44 78.42,-142.58 126.9,-203.88 48.47,-61.31 105.5,-109.79 159.68,-146.86 54.18,-37.07 105.5,-62.73 162.53,-95.52 57.03,-32.8 119.77,-72.72 216.72,-118.34 96.95,-45.63 228.12,-96.95 337.91,-142.57 109.78,-45.63 198.17,-85.56 295.13,-124.05 96.95,-38.5 202.45,-75.57 290.85,-98.38 88.4,-22.81 159.68,-31.37 220.99,-41.35 61.31,-9.98 112.64,-21.38 173.95,-31.36 61.31,-9.98 132.59,-18.54 206.73,-31.37 74.14,-12.83 151.13,-29.94 229.55,-52.75 78.41,-22.81 158.26,-51.33 289.43,-69.86 131.17,-18.54 313.66,-27.09 436.28,-34.22 122.62,-7.13 185.35,-12.84 252.37,-17.11 67.01,-4.28 138.29,-7.13 218.14,-11.4 79.84,-4.28 168.23,-9.99 273.74,-14.26 105.51,-4.28 228.12,-7.14 345.03,-7.14 116.92,0 228.13,2.86 316.52,5.71 88.4,2.85 153.99,5.7 230.98,9.98 76.99,4.27 165.38,9.98 265.18,14.26 99.81,4.27 211.02,7.13 309.4,9.98 98.38,2.85 183.92,5.7 246.65,27.09zm-3799.77 -2590.67c-44.48,24.35 -146.16,98.49 -235.12,186.39 -88.96,87.9 -165.22,189.58 -226.64,278.54 -61.43,88.96 -108.03,165.22 -139.45,228.06 -31.42,62.83 -47.65,112.26 -64.1,163.11 -16.45,50.85 -33.11,103.13 -51.92,155.02 -18.81,51.88 -39.76,103.37 -64.61,231.51 -24.86,128.13 -53.62,332.9 -42.58,474.48 11.04,141.57 61.88,219.94 132.84,286.66 70.95,66.72 162.04,121.8 263.71,172.64 101.67,50.83 213.94,97.43 313.49,124.97 99.55,27.53 186.4,36.01 365.39,36.01 178.98,0 450.1,-8.48 616.38,-16.95 166.28,-8.47 227.7,-16.95 329.38,-30.71 101.67,-13.77 243.58,-32.84 357.97,-48.72 114.38,-15.89 201.22,-28.6 298.66,-37.07 97.44,-8.47 205.46,-12.71 310.31,-20.12 104.85,-7.41 206.52,-18.01 301.83,-20.12 95.32,-2.12 184.29,4.23 261.6,13.77 77.31,9.53 142.98,22.23 230.88,31.77 87.91,9.53 198.05,15.88 326.2,51.89 128.15,36.01 274.31,101.68 350.56,145.1 76.25,43.42 82.61,64.6 -25.42,59.31 -108.03,-5.3 -330.43,-37.08 -599.44,-55.08 -269.01,-18.01 -584.62,-22.24 -838.8,-15.88 -254.18,6.35 -446.94,23.29 -658.75,42.36 -211.82,19.06 -442.7,40.25 -644.98,68.85 -202.29,28.59 -375.98,64.59 -578.26,105.9 -202.29,41.3 -433.17,87.9 -614.27,136.62 -181.11,48.72 -312.43,99.55 -479.76,170.51 -167.34,70.96 -370.69,162.04 -529.55,249.95 -158.86,87.9 -273.24,172.62 -351.61,239.35 -78.37,66.72 -120.74,115.43 -156.75,160.97 -36.01,45.54 -65.66,87.91 -93.2,132.39 -27.54,44.48 -52.95,91.08 -69.89,118.62 -16.95,27.53 -25.43,36.01 -25.43,386.57 0,350.55 8.48,1043.19 26.49,1476.36 18,433.16 45.53,606.84 93.19,901.27 47.66,294.42 115.44,709.58 146.16,922.45 30.71,212.88 24.35,223.48 -87.91,201.24 -112.26,-22.24 -330.43,-77.32 -441.63,-97.44 -111.21,-20.12 -115.44,-5.3 -128.83,78.11 -13.39,83.42 -35.94,235.41 -44.3,381.81 -8.36,146.4 -2.54,287.2 0.11,358.03 2.65,70.83 2.12,71.7 1.18,73.92 -0.95,2.23 -2.32,5.83 2.26,53.47 4.58,47.64 15.12,139.32 68.19,187.22 53.06,47.9 148.65,52.01 283.98,83.74 135.32,31.73 310.37,91.07 447.72,131.78 137.34,40.71 236.99,62.79 289.99,80.18 52.99,17.39 59.35,30.09 62.53,61.86 3.17,31.78 3.17,82.61 14.82,144.04 11.65,61.43 34.95,133.44 10.59,164.15 -24.36,30.72 -96.37,20.13 -159.91,20.13 -63.55,0 -118.63,10.59 -151.46,23.3 -32.83,12.71 -43.42,27.53 -74.13,52.95 -30.72,25.42 -81.55,61.43 -203.34,204.4 -121.8,142.98 -314.56,392.93 -417.29,530.61 -102.73,137.68 -115.44,163.09 -44.48,332.54 70.96,169.46 225.58,482.95 333.61,641.81 108.03,158.87 169.45,163.1 308.19,192.75 138.74,29.66 354.8,84.73 473.42,108.03 118.61,23.3 139.8,14.83 262.81,-95.4 123,-110.22 347.83,-322.2 465.57,-412.19 117.73,-89.98 128.38,-57.98 176.2,-24.27 47.82,33.72 132.82,69.13 168.65,104.04 35.83,34.92 22.49,69.33 6.29,286.7 -16.2,217.37 -35.27,617.71 -37.38,828.46 -2.12,210.76 12.7,231.94 46.59,269.01 33.89,37.07 86.85,90.02 261.6,180.04 174.74,90.03 471.29,217.12 637.57,282.78 166.27,65.66 202.28,69.9 230.88,75.19 28.59,5.3 49.78,11.65 98.5,12.71 48.71,1.06 124.97,-3.17 346.32,-55.07 221.34,-51.89 587.79,-151.45 784.78,-208.64 196.99,-57.19 224.52,-72.01 231.06,-251.93 6.54,-179.92 -7.93,-524.92 -17.46,-773.81 -9.53,-248.88 -14.13,-401.65 -12.2,-317.05 1.94,84.6 10.41,406.56 18.88,572.83 8.47,166.28 16.95,176.88 84.73,176.88 67.78,0 194.87,-10.6 343.14,-21.19 148.27,-10.59 317.73,-21.18 461.76,-42.36 144.04,-21.18 262.66,-52.95 382.33,-101.67 119.68,-48.71 240.42,-114.38 336.79,-164.16 96.38,-49.77 168.4,-83.67 225.59,-120.74 57.19,-37.06 99.56,-77.31 163.1,-128.15 63.55,-50.83 148.27,-112.25 263.71,-239.34 115.44,-127.09 261.6,-319.85 350.56,-427.88 88.96,-108.02 120.73,-131.32 207.57,-135.56 86.85,-4.23 228.77,10.59 417.29,-5.3 188.52,-15.88 423.63,-62.48 579.31,-96.37 155.69,-33.89 231.95,-55.07 336.79,-113.32 104.85,-58.25 238.3,-153.56 330.44,-227.7 92.14,-74.13 142.97,-127.09 228.76,-206.52 85.79,-79.43 206.52,-185.34 301.84,-320.91 95.32,-135.56 165.22,-300.77 211.82,-436.34 46.6,-135.56 69.9,-241.46 70.96,-393.97 1.06,-152.51 -20.13,-351.61 -46.61,-535.89 -26.47,-184.28 -58.25,-353.74 -100.61,-489.3 -42.36,-135.56 -95.32,-237.24 -173.69,-372.8 -78.37,-135.56 -182.16,-305.02 -280.66,-450.11 -98.49,-145.09 -191.69,-265.83 -269.01,-348.43 -77.31,-82.61 -138.73,-127.1 -151.44,-332.56 -12.71,-205.46 23.3,-571.9 46.6,-988.12 23.3,-416.22 33.89,-882.21 34.95,-1167.1 1.06,-284.9 -7.42,-388.69 -55.08,-493.54 -47.65,-104.85 -134.5,-210.75 -226.64,-301.83 -92.14,-91.09 -189.57,-167.34 -328.31,-255.24 -138.74,-87.91 -318.79,-187.47 -461.77,-255.25 -142.97,-67.78 -248.88,-103.78 -301.84,-135.55 -52.95,-31.78 -52.95,-59.31 -32.83,-115.44 20.13,-56.14 60.37,-140.86 80.49,-239.35 20.13,-98.5 20.13,-210.77 13.77,-285.96 -6.35,-75.2 -19.06,-113.32 -39.19,-159.92 -20.12,-46.6 -47.65,-101.68 -84.72,-174.75 -37.07,-73.08 -83.67,-164.16 -142.98,-254.18 -59.31,-90.02 -131.32,-178.99 -223.46,-272.18 -92.14,-93.2 -204.41,-190.64 -332.56,-278.54 -128.15,-87.9 -272.18,-166.28 -382.33,-221.35 -110.14,-55.07 -186.4,-86.85 -389.74,-101.67 -203.34,-14.83 -533.78,-12.71 -782.67,20.12 -248.88,32.83 -416.21,96.38 -577.2,158.87 -160.98,62.48 -315.6,123.9 -456.46,188.51 -140.86,64.6 -267.95,132.39 -426.81,213.94 -158.86,81.55 -349.5,176.86 -508.36,249.94 -158.86,73.07 -285.95,123.91 -468.11,171.57 -182.17,47.65 -419.4,92.14 -592.03,94.26 -172.64,2.11 -280.66,-38.13 -369.62,-96.38 -88.97,-58.25 -158.87,-134.51 -220.29,-222.41 -61.43,-87.9 -114.39,-187.46 -128.15,-300.78 -13.77,-113.32 11.65,-240.41 31.78,-327.25 20.12,-86.85 34.94,-133.45 69.89,-203.35 34.95,-69.9 90.02,-163.09 144.04,-237.22 54.01,-74.14 106.96,-129.22 141.91,-169.46 34.95,-40.25 51.9,-65.66 77.32,-94.25 25.41,-28.6 59.3,-60.38 92.13,-90.03 32.83,-29.66 64.61,-57.19 86.85,-83.67 22.24,-26.48 34.95,-51.89 -9.53,-27.53zm5437.61 4463.12c5.45,-6.67 32.1,-4.24 55.11,-3.03 23.02,1.21 42.41,1.21 52.1,-7.27 9.69,-8.48 9.69,-25.44 5.45,-38.16 -4.24,-12.72 -12.72,-21.2 -32.71,-24.83 -19.99,-3.64 -51.48,-2.43 -83.59,-0.61 -32.1,1.81 -64.81,4.24 -79.96,11.51 -15.14,7.27 -12.71,19.38 -14.53,35.74 -1.82,16.35 -7.88,36.95 -27.87,53.91 -19.99,16.96 -53.91,30.28 -72.08,43.61 -18.17,13.33 -20.6,26.65 -20.6,38.77 0,12.11 2.43,23.02 4.85,32.11 2.42,9.08 4.85,16.35 16.96,24.83 12.12,8.48 33.92,18.17 56.33,22.41 22.42,4.24 45.43,3.03 76.32,1.22 30.9,-1.82 69.67,-4.25 98.74,-6.06 29.08,-1.82 48.47,-3.04 59.97,-11.52 11.51,-8.48 15.15,-24.22 14.54,-36.94 -0.61,-12.72 -5.45,-22.42 -19.39,-27.26 -13.93,-4.85 -36.94,-4.85 -62.38,-6.06 -25.44,-1.21 -53.31,-3.64 -70.88,-7.88 -17.56,-4.24 -24.83,-10.29 -28.47,-16.35 -3.63,-6.06 -3.63,-12.11 1.21,-15.74 4.85,-3.64 14.54,-4.86 30.29,-7.88 15.75,-3.03 37.55,-7.88 49.66,-10.9 12.12,-3.03 14.55,-4.25 7.88,-12.73 -6.66,-8.48 -22.4,-24.23 -16.95,-30.89zm78.13 -204.74c47.25,11.51 146.6,23.62 210.2,31.5 63.6,7.87 91.47,11.51 112.06,7.88 20.6,-3.64 33.92,-14.55 33.92,-26.66 0,-12.12 -13.32,-25.44 -29.68,-38.77 -16.35,-13.33 -35.74,-26.65 -41.19,-39.97 -5.45,-13.33 3.03,-26.66 -1.21,-35.74 -4.24,-9.09 -21.2,-13.93 -42.4,-16.35 -21.2,-2.43 -46.65,-2.43 -65.43,0.6 -18.77,3.03 -30.89,9.08 -35.13,18.78 -4.24,9.69 -0.6,23.01 0,32.71 0.61,9.69 -1.82,15.74 -18.78,19.98 -16.96,4.24 -48.45,6.67 -77.53,8.49 -29.07,1.81 -55.73,3.02 -71.48,9.08 -15.75,6.05 -20.59,16.96 26.65,28.47zm-89.04 -342.85c-23.62,5.45 -44.22,17.57 -56.94,35.14 -12.72,17.56 -17.56,40.58 -13.93,55.12 3.64,14.54 15.75,20.59 32.1,21.81 16.36,1.21 36.96,-2.43 58.76,-4.24 21.81,-1.82 44.83,-1.82 62.39,-1.82 17.57,0 29.69,0 33.93,-8.48 4.24,-8.48 0.6,-25.45 -3.04,-39.38 -3.63,-13.93 -7.26,-24.84 -13.32,-34.53 -6.06,-9.69 -14.54,-18.17 -32.11,-23.01 -17.56,-4.85 -44.22,-6.06 -67.84,-0.61zm-167.79 -102.97c-23.02,4.24 -43.61,24.83 -55.73,43.61 -12.11,18.78 -15.75,35.74 -15.14,53.31 0.61,17.56 5.45,35.73 18.17,46.03 12.72,10.29 33.32,12.72 49.06,5.45 15.75,-7.27 26.66,-24.23 30.9,-41.19 4.24,-16.96 1.82,-33.92 3.64,-46.03 1.82,-12.12 7.87,-19.39 15.74,-25.45 7.88,-6.06 17.57,-10.9 9.69,-19.38 -7.87,-8.48 -33.31,-20.6 -56.33,-16.35z"/>
 </g>
</svg>
